<svg id="Layer_5" data-name="Layer 5" xmlns="http://www.w3.org/2000/svg" viewBox="0 0 100 100"><defs><style>.cls-1{fill:#fdb71e;}</style></defs><title>Artboard 1</title><rect class="cls-1" x="14.19" y="33.98" width="13.78" height="39.97" rx="2.27"/><rect class="cls-1" x="43.11" y="33.98" width="13.78" height="39.97" rx="2.27"/><rect class="cls-1" x="72.04" y="33.98" width="13.78" height="39.97" rx="2.27"/><path class="cls-1" d="M6.53,82.79a3.64,3.64,0,0,0,3.64,3.64H89.89a3.64,3.64,0,1,0,0-7.27H10.17A3.63,3.63,0,0,0,6.53,82.79Z"/><path class="cls-1" d="M94.76,91.73H5.24a3.64,3.64,0,0,0,0,7.27H94.76a3.64,3.64,0,0,0,0-7.27Z"/><path class="cls-1" d="M5.06,28.83H94.94a2.37,2.37,0,0,0,2.38-2.38V22.22A2.39,2.39,0,0,0,96,20.07L51,1.23a2.31,2.31,0,0,0-2,0L4.05,20.07a2.38,2.38,0,0,0-1.37,2.15v4.23A2.37,2.37,0,0,0,5.06,28.83Z"/></svg>