<?xml version="1.0" encoding="utf-8"?>
<!-- Generator: Adobe Illustrator 22.1.0, SVG Export Plug-In . SVG Version: 6.00 Build 0)  -->
<svg version="1.1" xmlns="http://www.w3.org/2000/svg" xmlns:xlink="http://www.w3.org/1999/xlink" x="0px" y="0px"
	 viewBox="0 0 225 202" style="enable-background:new 0 0 225 202;" xml:space="preserve">
<style type="text/css">
	.st0{display:none;}
	.st1{display:inline;}
	.st2{fill:#FBC623;}
</style>
<g id="Layer_1" class="st0">
	<g class="st1">
		<path d="M167.5,147.4L167.5,147.4l-8.2-7c-4.9-4.9-8.7-10.5-11.4-16.8c-1.7-3.8-3.1-7.8-3.6-12c-0.5-3.3-1.2-6.6-2.6-9.7
			c-4.5-9.7-11.8-16.1-22.3-18.7c-6.8-1.7-13.4-1-19.8,1.7c-6.1,2.6-10.9,6.8-14.4,12.4c-2.3,3.5-3.7,7.4-4.6,11.5
			c-0.7,3.7-1.2,7.5-2.2,11.1c-1.7,6.6-5.1,12.4-9.8,17.3c-2.7,2.8-5.8,5.1-8.7,7.7c-7.7,6.6-12.3,14.9-14.1,24.7
			c-1.1,6.3,0.3,12.1,4.6,16.9c3.2,3.6,7.3,5.8,12,7c4.5,1.2,9,1.2,13.5,0.3c2.9-0.6,5.8-1.3,8.8-1.9c8.4-1.7,16.9-2.7,25.5-2.7
			c5.6,0,11.2,0.3,16.8,0.6c6.2,0.3,12.3,1.5,18.4,2.7c3.2,0.7,6.5,1.1,9.8,1.7c0-0.1,0-0.2,0.1-0.3c5.5,0,10.7-1.1,15.4-4.1
			c5.2-3.2,8.3-7.9,9.1-14c0.6-4.8-0.4-9.5-1.9-14C175.6,156.2,172.1,151.3,167.5,147.4z"/>
		<path d="M54.6,136.5c6-2.4,9.7-6.9,12.3-12.6c1.9-4.4,3-8.9,3.4-13.6c0.7-7.5-0.6-14.8-4.4-21.4C61,80.6,53.7,75.2,44.4,72.5
			c-4.3-1.3-8.7-1.2-13,0.3c-6.4,2.3-10.3,7.1-12.8,13.3c-0.5,1.3-0.9,2.5-1.3,3.8c-1.1,3.9-1.7,7.9-1.7,11.9
			c-0.2,3.5,0.6,8.5,2.3,13.3c0.6,1.6,1.3,3.2,2,4.6c5.5,10.4,14.1,16.3,25.8,17.8C48.8,138,51.8,137.6,54.6,136.5z"/>
		<path d="M59.3,67.7c4.5,6.5,10.8,10.4,18.3,12.6c3.6,1.1,7.4,1.2,11,0.2c5.4-1.5,9.4-4.9,12.1-9.7c3.6-6.2,5-13,5.2-21.3
			c-0.2-1.6-0.4-4.4-1-7.1c-1.6-7.2-5.1-13.3-10.8-18c-5.2-4.3-10.9-7.6-17.8-8.1c-8.3-0.6-14.5,2.9-18.7,9.9
			C55,30.4,53.7,35,53,39.8c-0.8,5.2-0.7,10.2,0.7,15.3C54.9,59.6,56.6,63.8,59.3,67.7z"/>
		<path d="M126,72.8c2.6,3.3,5.7,6,9.6,7.7c6.3,2.6,12.2,1.6,18-1.7c5.1-2.9,9-6.9,12.3-11.6c0-0.1,0.1-0.1,0.1-0.2
			c4.1-5.7,4.9-9.5,4.9-9.5h0c0.4-1.1,0.8-2.2,1-3.3c1.3-5.8,1.3-11.5-0.5-17.2c-1.7-5.3-4.2-10.2-8.1-14.3
			c-6.4-6.8-15.5-8.7-23.6-4.7c-7.5,3.7-12.7,9.8-16.6,17c-2.3,4.1-3.3,8.7-3.9,13.4c-0.5,3.9-0.3,7.7,0.6,11.6
			C120.8,64.8,123.1,69,126,72.8z"/>
		<path d="M202.9,81.6c-5.7-8.3-15.2-10.8-24.4-7c-3.7,1.5-7,3.6-10.1,6.1c-9.3,7.5-13.9,17.3-14.5,27.9c0.1,7.9,2.1,14.1,5.9,19.7
			c5.9,8.5,14.5,10.8,23.8,7.6c5.2-1.8,9.6-4.8,13.6-8.5c5.7-5.3,9.8-11.7,11.2-19.4C210.3,98.4,208.4,89.5,202.9,81.6z"/>
	</g>
</g>
<g id="Layer_2">
	<path class="st2" d="M167.5,147.4L167.5,147.4l-8.2-7c-4.9-4.9-8.7-10.5-11.4-16.8c-1.7-3.8-3.1-7.8-3.6-12
		c-0.5-3.3-1.2-6.6-2.6-9.7c-4.5-9.7-11.8-16.1-22.3-18.7c-6.8-1.7-13.4-1-19.8,1.7c-6.1,2.6-10.9,6.8-14.4,12.4
		c-2.3,3.5-3.7,7.4-4.6,11.5c-0.7,3.7-1.2,7.5-2.2,11.1c-1.7,6.6-5.1,12.4-9.8,17.3c-2.7,2.8-5.8,5.1-8.7,7.7
		c-7.7,6.6-12.3,14.9-14.1,24.7c-1.1,6.3,0.3,12.1,4.6,16.9c3.2,3.6,7.3,5.8,12,7c4.5,1.2,9,1.2,13.5,0.3c2.9-0.6,5.8-1.3,8.8-1.9
		c8.4-1.7,16.9-2.7,25.5-2.7c5.6,0,11.2,0.3,16.8,0.6c6.2,0.3,12.3,1.5,18.4,2.7c3.2,0.7,6.5,1.1,9.8,1.7c0-0.1,0-0.2,0.1-0.3
		c5.5,0,10.7-1.1,15.4-4.1c5.2-3.2,8.3-7.9,9.1-14c0.6-4.8-0.4-9.5-1.9-14C175.6,156.2,172.1,151.3,167.5,147.4z"/>
	<path class="st2" d="M44.6,126.5c6-2.4,9.7-6.9,12.3-12.6c1.9-4.4,3-8.9,3.4-13.6c0.7-7.5-0.6-14.8-4.4-21.4
		C51,70.6,43.7,65.2,34.4,62.5c-4.3-1.3-8.7-1.2-13,0.3c-6.4,2.3-10.3,7.1-12.8,13.3c-0.5,1.3-0.9,2.5-1.3,3.8
		c-1.1,3.9-1.7,7.9-1.7,11.9c-0.2,3.5,0.6,8.5,2.3,13.3c0.6,1.6,1.3,3.2,2,4.6c5.5,10.4,14.1,16.3,25.8,17.8
		C38.8,128,41.8,127.6,44.6,126.5z"/>
	<path class="st2" d="M59.3,57.7c4.5,6.5,10.8,10.4,18.3,12.6c3.6,1.1,7.4,1.2,11,0.2c5.4-1.5,9.4-4.9,12.1-9.7
		c3.6-6.2,5-13,5.2-21.3c-0.2-1.6-0.4-4.4-1-7.1c-1.6-7.2-5.1-13.3-10.8-18c-5.2-4.3-10.9-7.6-17.8-8.1C68,5.7,61.8,9.2,57.5,16.2
		C55,20.4,53.7,25,53,29.8c-0.8,5.2-0.7,10.2,0.7,15.3C54.9,49.6,56.6,53.8,59.3,57.7z"/>
	<path class="st2" d="M126,62.8c2.6,3.3,5.7,6,9.6,7.7c6.3,2.6,12.2,1.6,18-1.7c5.1-2.9,9-6.9,12.3-11.6c0-0.1,0.1-0.1,0.1-0.2
		c4.1-5.7,4.9-9.5,4.9-9.5h0c0.4-1.1,0.8-2.2,1-3.3c1.3-5.8,1.3-11.5-0.5-17.2c-1.7-5.3-4.2-10.2-8.1-14.3
		c-6.4-6.8-15.5-8.7-23.6-4.7c-7.5,3.7-12.7,9.8-16.6,17c-2.3,4.1-3.3,8.7-3.9,13.4c-0.5,3.9-0.3,7.7,0.6,11.6
		C120.8,54.8,123.1,59,126,62.8z"/>
	<path class="st2" d="M212.9,71.6c-5.7-8.3-15.2-10.8-24.4-7c-3.7,1.5-7,3.6-10.1,6.1c-9.3,7.5-13.9,17.3-14.5,27.9
		c0.1,7.9,2.1,14.1,5.9,19.7c5.9,8.5,14.5,10.8,23.8,7.6c5.2-1.8,9.6-4.8,13.6-8.5c5.7-5.3,9.8-11.7,11.2-19.4
		C220.3,88.4,218.4,79.5,212.9,71.6z"/>
</g>
</svg>
