<svg id="Calque_7" data-name="Calque 7" xmlns="http://www.w3.org/2000/svg" viewBox="0 0 100 100"><defs><style>.cls-1{fill:#2a75ff;}</style></defs><title>Artboard 1</title><path class="cls-1" d="M83,1.29C75.67-.37,63.62,7.08,50,7.07a48.21,48.21,0,0,1-10.6-1.31c-5.58-1.26-10.68-3.11-15-4.09-9.13-2.06-14.95-.3-15,18.71C9.38,53.92,27.49,99,49.93,99S90.56,54,90.59,20.44C90.6,7.25,87.8,2.37,83,1.29ZM26.61,35.5a4,4,0,1,1-5.36-5.86,13.85,13.85,0,0,1,13.06-3.28,14.14,14.14,0,0,1,9.91,9.12,4,4,0,1,1-7.52,2.59,6.09,6.09,0,0,0-4.35-4A5.72,5.72,0,0,0,26.61,35.5ZM65,70.27a18.22,18.22,0,0,1-30.47,0A3.84,3.84,0,0,1,41,66a10.55,10.55,0,0,0,17.64,0A3.84,3.84,0,1,1,65,70.27Zm14-35a4,4,0,0,1-5.62.25,6.22,6.22,0,0,0-10.09,2.54,4,4,0,0,1-4.62,2.58,3.45,3.45,0,0,1-.43-.12,4,4,0,0,1-2.46-5,14.17,14.17,0,0,1,23-5.81A4,4,0,0,1,79,35.3Z"/></svg>