<svg xmlns="http://www.w3.org/2000/svg" viewBox="0 0 10.18 10.18"><defs><style>.cls-1{fill:none;stroke:#1ead3b;stroke-miterlimit:10;}</style></defs><title>geography</title><g id="Layer_2" data-name="Layer 2"><path style="fill:#1ead3b" d="M171.68,487.29c.31.38.93,1.64.46,1.89s-.57.16-.81.32a.92.92,0,0,1-.78.17c-.28-.1-.68.09-.58.3a2,2,0,0,0,1.3.71c.49,0,.6.31.7.55a.43.43,0,0,0,.6.19c.19-.09,1,.08,1,.68s-.84.87-1,1.23.08.51-.17.71a1.4,1.4,0,0,0-.43.65c0,.17-.15.81-.49.47s-.3-.72-.57-1.12a1.54,1.54,0,0,1-.22-1.15c0-.45-.46-.47-.61-1s.1-.56-.49-1a3.77,3.77,0,0,1-1-1.41S169.87,487.4,171.68,487.29Z" transform="translate(-167.77 -486.62)"/><path style="fill:#1ead3b" d="M177.33,490.49a2.28,2.28,0,0,1-1.07.08c-.22-.08-.68-.38-1-.16a1.68,1.68,0,0,0-.61,1c0,.35.28.57.51.68s1,.18,1,.74-.35,1-.23,1.33.68.48.68.48" transform="translate(-167.77 -486.62)"/><path style="fill:#1ead3b" d="M175,487.6a7.78,7.78,0,0,0-.76.85c-.07.15.25.52.58.47s.45-.23.7-.12a.61.61,0,0,0,.78-.18A2.88,2.88,0,0,0,175,487.6Z" transform="translate(-167.77 -486.62)"/></g><g id="Layer_4" data-name="Layer 4"><circle class="cls-1" cx="5.09" cy="5.09" r="4.59"/></g></svg>