<svg id="Calque_6" data-name="Calque 6" xmlns="http://www.w3.org/2000/svg" viewBox="0 0 100 100"><defs><style>.cls-1{fill:#f455aa;}</style></defs><title>Artboard 1</title><path class="cls-1" d="M79.61,71.09c-5,1-10.67,5.93-15.67,10.25C62.3,82.76,60.75,84.1,59.56,85c-5.45,4.08-10.13,5.7-12.47,6,1.8-4.46.1-6.81-1.1-7.82-4.81-4.09-15.39,2.44-16.58,3.2a4,4,0,1,0,4.25,6.67,33.47,33.47,0,0,1,5.28-2.55,6.58,6.58,0,0,0,2.2,6.9A8.17,8.17,0,0,0,46.31,99c5.32,0,12.28-3.38,18-7.67,1.41-1.06,3.07-2.49,4.81-4,3.63-3.13,9.11-7.87,12.09-8.48a3.16,3.16,0,0,1,3.33,1,4.21,4.21,0,0,1,.64,4.14,4,4,0,1,0,7.35,3,12.16,12.16,0,0,0-1.91-12.18A11,11,0,0,0,79.61,71.09Z"/><path class="cls-1" d="M94.72,4.8a2.63,2.63,0,0,0-1.9-1.57c-12.47-2.6-54.5-8.63-71.48,23a3,3,0,0,0-.26.7l-2,9.6-4.32,1.06a2.64,2.64,0,0,0-1.87,1.74c-1.77,5.37-4.55,22.4.52,33.8l.07-.12C7.68,83.84,5.21,91.71,5.09,93.1a4,4,0,0,0,3.6,4.29H9a4,4,0,0,0,3.9-3.3,100.65,100.65,0,0,1,7-16.61c.66.05,1.31.12,2,.12,19.07,0,43.85-21.09,45-22.08a2.65,2.65,0,0,0,.12-3.89l-2.79-2.71a102.09,102.09,0,0,0,9-5.44,2.62,2.62,0,0,0,.75-.77c1-1.63,2.46-4.26,4.42-7.91,3.61-6.69,9.07-16.82,16-27.56A2.63,2.63,0,0,0,94.72,4.8Zm-38.15,27A151.37,151.37,0,0,0,20.26,76.93l.06-.1-6.84-3.91a161.5,161.5,0,0,1,38-47.16,4,4,0,1,1,5.11,6Z"/></svg>