<svg id="Calque_4" data-name="Calque 4" xmlns="http://www.w3.org/2000/svg" viewBox="0 0 100 100"><defs><style>.cls-1{fill:#8540b8;}</style></defs><title>Artboard 1</title><path class="cls-1" d="M5.24,92.76a6.2,6.2,0,0,0,.83,1.1,5.8,5.8,0,0,0,.78.64c4.52,3.39,17.07,5.61,31.35,3.92L1.58,61.8C-.07,75.71,2,88,5.24,92.76Z"/><path class="cls-1" d="M93.88,6.12c-3.7-3.7-16.69-6.29-31.65-4.58L64,3.31h0L96.61,35.94v0l1.85,1.85C100.16,22.82,97.58,9.82,93.88,6.12Z"/><path class="cls-1" d="M53,4.08c-11.34,2.44-23,7.49-32.2,16.43v0a2.21,2.21,0,0,1-.25.25h0C11.67,29.8,6.63,41.34,4.17,52.55l2.11,2.11v0l39,39h0l2.18,2.18c11.22-2.46,22.76-7.5,31.81-16.34l0,0,.11-.13.13-.12h0c8.94-9.16,14-20.86,16.42-32.2Zm8.29,50.83L55.9,49.57h0l0,0-6.09,6.09L55.1,61a3.68,3.68,0,0,1,0,5.19,3.63,3.63,0,0,1-2.59,1.07A3.57,3.57,0,0,1,51.15,67,3.65,3.65,0,0,1,50,66.19l-5.35-5.34h0l0,0L39.36,66a3.64,3.64,0,0,1-2.59,1.08,3.77,3.77,0,0,1-1.36-.26,3.53,3.53,0,0,1-1.18-.8,3.65,3.65,0,0,1,0-5.18l5.2-5.21-5.34-5.35a3.67,3.67,0,0,1,3.94-6,3.47,3.47,0,0,1,1.19.8l5.35,5.34h0l0,0,6.09-6.09L45.37,39a3.67,3.67,0,0,1,3.94-6,3.72,3.72,0,0,1,1.19.8l5.35,5.34h0l0,0L61.11,34a3.66,3.66,0,0,1,3.94-.82,3.59,3.59,0,0,1,1.19.79,3.66,3.66,0,0,1,0,5.19L61,44.36l5.35,5.35A3.67,3.67,0,0,1,63.79,56a3.77,3.77,0,0,1-1.36-.26A3.72,3.72,0,0,1,61.24,54.91Z"/></svg>